<svg width="906" height="860" viewBox="0 0 906 860" fill="none" xmlns="http://www.w3.org/2000/svg">
<defs>
    <linearGradient id="grad1" x1="0%" x2="100%" y1="0%" y2="0%">
      <stop offset="0%" stop-color="yellow" />
      <stop offset="100%" stop-color="red" />
    </linearGradient>
</defs>
<path fill-rule="evenodd" clip-rule="evenodd" d="M33.7831 4.60678L0 0L204.234 188.878L271.8 270.264L399.254 357.793V348.58L333.224 282.549L282.549 193.485L33.7831 4.60678ZM79.8508 156.631L44.5322 150.488L253.373 342.437L343.973 365.471L300.976 311.725L79.8508 156.631ZM445.322 462.214L453 472.963L460.678 462.214V425.359L491.39 374.685L588.132 317.868L482.176 466.82L525.173 449.929L517.495 479.105L476.034 509.817L463.749 540.529L453 529.78L442.251 540.529L429.966 509.817L388.505 479.105L380.827 449.929L423.824 466.82L317.868 317.868L414.61 374.685L445.322 425.359V462.214ZM453 597.346V543.6L434.573 560.492L417.681 514.424L380.827 486.783L340.902 383.898L7.67802 322.475L21.4984 339.366L300.976 429.966L391.576 543.6L414.61 597.346L443.786 623.451L453 597.346ZM231.875 505.21L270.264 517.495L419.217 666.447L436.109 721.729L451.464 647.509V632.664L453 640.087L454.536 632.664V647.509L469.891 721.729L486.783 666.447L635.735 517.495L674.125 505.21L491.39 726.336L454.536 849.655V859.932L453 854.794L451.464 859.932V849.655L414.61 726.336L231.875 505.21ZM471.427 560.492L453 543.6V597.346L462.214 623.451L491.39 597.346L514.424 543.6L605.024 429.966L884.502 339.366L898.322 322.475L565.098 383.898L525.173 486.783L488.319 514.424L471.427 560.492ZM861.468 150.488L826.149 156.631L605.024 311.725L562.027 365.471L652.627 342.437L861.468 150.488ZM906 0L872.217 4.60678L623.451 193.485L572.776 282.549L506.746 348.58V357.793L634.2 270.264L701.766 188.878L906 0Z" fill="url(#grad1)"/>
</svg>
